<?xml version="1.0" encoding="UTF-8"?>
<!DOCTYPE svg PUBLIC "-//W3C//DTD SVG 1.1//EN" "http://www.w3.org/Graphics/SVG/1.1/DTD/svg11.dtd">
<svg version="1.1" xmlns="http://www.w3.org/2000/svg" xmlns:xlink="http://www.w3.org/1999/xlink" x="0" y="0" width="832" height="261" viewBox="0, 0, 832, 261">
  <g id="Layer_1">
    <path d="M239.75,128.154 L252.307,128.154 L252.307,181.319 L278.847,181.319 L278.847,192.405 L239.75,192.405 z" fill="#636463"/>
    <path d="M286.186,128.154 L298.785,128.154 L298.785,192.406 L286.186,192.406 z" fill="#636463"/>
    <path d="M311.952,128.154 L339.332,128.154 C345.827,128.154 350.657,129.148 353.821,131.136 C358.356,133.992 360.624,138.106 360.624,143.482 C360.624,147.513 359.266,150.915 356.55,153.687 C354.73,155.534 352.071,157.073 348.571,158.306 C351.567,159.202 353.848,160.237 355.417,161.414 C357.6,163.037 359.294,165.04 360.497,167.419 C361.702,169.799 362.304,172.235 362.304,174.725 C362.304,177.638 361.548,180.458 360.036,183.188 C358.524,185.917 356.116,188.136 352.813,189.843 C349.51,191.552 345.31,192.405 340.215,192.405 L311.952,192.405 z M324.509,137.897 L324.509,153.351 L337.989,153.351 C340.872,153.351 343.378,152.455 345.506,150.663 C346.877,149.515 347.563,147.794 347.563,145.497 C347.563,143.231 346.766,141.396 345.17,139.996 C343.574,138.596 341.068,137.897 337.653,137.897 z M324.509,163.261 L324.509,182.537 L334.629,182.537 C339.864,182.537 343.588,181.634 345.8,179.828 C348.011,178.022 349.118,175.65 349.118,172.71 C349.118,169.995 348.11,167.74 346.094,165.948 C344.078,164.156 341.139,163.261 337.275,163.261 z" fill="#636463"/>
    <path d="M373.053,128.154 L416.139,128.154 L416.139,139.323 L385.694,139.323 L385.694,153.477 L404.255,153.477 L404.255,163.009 L385.694,163.009 L385.694,181.319 L416.139,181.319 L416.139,192.405 L373.053,192.405 z" fill="#636463"/>
    <path d="M427.759,128.154 L445.105,128.154 C454.427,128.154 460.873,128.854 464.443,130.254 C468.012,131.653 470.79,133.964 472.78,137.183 C474.766,140.402 475.76,144.098 475.76,148.27 C475.76,152.105 474.865,155.276 473.073,157.78 C471.281,160.287 468.173,162.436 463.75,164.228 L475.306,192.405 L462.783,192.405 L452.011,166.579 L440.443,166.579 L440.443,192.405 L427.759,192.405 z M440.443,139.367 L440.443,156.669 L450.564,156.669 C454.259,156.669 457.408,155.618 460.013,153.519 C461.72,152.119 462.575,150.174 462.575,147.681 C462.575,145.302 461.622,143.32 459.718,141.738 C457.815,140.157 454.763,139.367 450.564,139.367 z" fill="#636463"/>
    <path d="M479.602,128.154 L528.316,128.154 L528.316,139.198 L510.216,139.198 L510.216,192.405 L497.619,192.405 L497.619,139.198 L479.602,139.198 z" fill="#636463"/>
    <path d="M545.206,128.154 L558.612,128.154 L579.53,192.405 L567.102,192.405 L562.224,177.33 L541.685,177.33 L536.822,192.405 L524.392,192.405 z M551.939,145.54 L544.574,167.965 L559.194,167.965 z" fill="#636463"/>
    <path d="M585.932,128.154 L603.276,128.154 C612.598,128.154 619.044,128.854 622.616,130.254 C626.183,131.653 628.961,133.964 630.951,137.183 C632.937,140.402 633.932,144.098 633.932,148.27 C633.932,152.105 633.037,155.276 631.245,157.78 C629.454,160.287 626.344,162.436 621.921,164.228 L633.477,192.405 L620.955,192.405 L610.182,166.579 L598.615,166.579 L598.615,192.405 L585.932,192.405 z M598.615,139.367 L598.615,156.669 L608.735,156.669 C612.43,156.669 615.58,155.618 618.184,153.519 C619.891,152.119 620.747,150.174 620.747,147.681 C620.747,145.302 619.793,143.32 617.89,141.738 C615.987,140.157 612.934,139.367 608.735,139.367 z" fill="#636463"/>
    <path d="M646.023,128.154 L658.622,128.154 L658.622,192.406 L646.023,192.406 z" fill="#636463"/>
    <path d="M686.197,128.154 L699.603,128.154 L720.521,192.405 L708.092,192.405 L703.215,177.33 L682.676,177.33 L677.812,192.405 L665.384,192.405 z M691.929,145.54 L684.564,167.965 L699.184,167.965 z" fill="#636463"/>
    <path d="M726.796,128.154 L740.156,128.154 L766.523,171.282 L766.523,128.154 L779.037,128.154 L779.037,192.405 L766.523,192.405 L739.436,147.598 L739.436,192.405 L726.796,192.405 z" fill="#636463"/>
    <text transform="matrix(1, 0, -0, 1, 659.348, 212.174)">
      <tspan x="-127.265" y="12" font-family="FranklinGothic-Medium" font-size="36.965" kerning="-0.807" fill="#636463">P</tspan>
      <tspan x="-107.549" y="12" font-family="FranklinGothic-Medium" font-size="36.965" fill="#636463">AR</tspan>
      <tspan x="-61.506" y="12" font-family="FranklinGothic-Medium" font-size="36.965" kerning="0.791" fill="#636463">T</tspan>
      <tspan x="-41.293" y="12" font-family="FranklinGothic-Medium" font-size="36.965" fill="#636463">Y OF OHIO</tspan>
    </text>
  </g>
  <g id="layer101">
    <path d="M145.644,229.109 C145.023,228.778 144.609,228.012 144.609,227.225 C144.609,226.315 144.278,225.88 143.14,225.321 C142.105,224.783 142.084,224.741 141.194,222.63 C140.966,222.092 140.552,221.823 138.276,220.83 C136.806,220.188 135.254,219.505 134.84,219.339 C134.426,219.174 133.97,218.842 133.846,218.594 C133.722,218.366 133.515,216.98 133.412,215.531 C133.143,212.281 133.101,212.054 132.604,211.557 C132.046,210.998 131.487,211.039 129.934,211.764 C129.189,212.116 128.175,212.467 127.658,212.53 C126.933,212.633 126.498,212.861 125.774,213.544 C125.257,214.02 124.325,214.641 123.683,214.931 C122.649,215.386 122.442,215.593 121.841,216.69 C121.489,217.373 120.951,218.139 120.682,218.408 C120.103,218.946 119.109,219.008 118.592,218.532 C117.785,217.828 117.205,217.89 116.149,218.801 C115.301,219.526 115.052,219.65 114.514,219.546 C113.852,219.422 113.479,219.049 112.672,217.766 C112.03,216.773 111.058,216.317 109.464,216.317 C107.974,216.317 107.084,216.007 105.904,215.055 C104.869,214.227 104,214.165 103.047,214.868 C102.613,215.2 102.075,215.386 101.495,215.386 C101.019,215.407 100.522,215.448 100.398,215.448 C100.108,215.51 99.694,216.421 99.694,217.062 C99.694,217.787 98.825,218.594 98.039,218.594 C97.066,218.594 94.396,217.414 93.858,216.731 C93.588,216.421 93.216,215.883 93.03,215.531 C92.843,215.179 92.222,214.558 91.664,214.144 C91.063,213.73 90.525,213.13 90.36,212.737 C89.925,211.64 89.387,210.998 88.786,210.853 C88.455,210.77 87.627,210.418 86.924,210.066 L85.64,209.404 L84.026,209.756 C81.646,210.273 79.514,210.211 77.361,209.57 C73.573,208.452 73.387,208.266 73.201,205.285 L73.077,203.257 L71.793,202.077 C70.945,201.29 70.51,200.711 70.489,200.38 C70.469,200.09 70.448,199.283 70.427,198.579 C70.386,196.696 69.93,196.302 67.405,195.93 C64.735,195.516 64.094,194.998 64.094,193.239 C64.094,191.604 62.976,191.521 60.202,192.908 C57.16,194.439 56.311,194.46 55.028,193.073 C54.759,192.784 54.283,192.452 53.972,192.308 C53.662,192.183 53.062,191.666 52.627,191.148 C51.965,190.362 51.758,190.238 51.075,190.238 C50.495,190.238 50.102,190.403 49.46,190.962 C48.984,191.355 48.446,191.687 48.239,191.687 C47.908,191.687 47.887,190.672 48.053,171.465 C48.156,160.329 48.239,128.143 48.239,99.953 C48.26,61.206 48.322,48.621 48.508,48.435 C48.818,48.125 48.611,48.145 72.373,47.421 C83.364,47.069 94.955,46.696 98.121,46.593 C104.124,46.386 104.455,46.407 104.455,47.214 C104.455,47.421 104.621,47.793 104.848,48.062 C105.221,48.518 105.262,48.518 107.311,48.311 C108.47,48.187 109.712,48.145 110.126,48.249 C110.975,48.435 112.569,49.304 114.307,50.525 C115.135,51.105 116.191,51.581 117.598,51.995 C120.744,52.947 120.662,52.906 123.249,55.493 C124.573,56.818 125.877,58.018 126.147,58.163 C126.726,58.474 127.347,58.308 128.051,57.666 C128.341,57.397 128.92,57.045 129.334,56.88 C129.81,56.673 130.286,56.238 130.638,55.721 C130.928,55.245 131.321,54.872 131.507,54.872 C131.694,54.872 132.19,55.245 132.604,55.7 C133.267,56.424 133.494,56.528 134.24,56.528 C135.461,56.528 136.309,57.025 136.33,57.708 C136.33,58.246 135.316,58.577 132.915,58.888 C131.549,59.053 129.872,59.384 129.21,59.612 C128.527,59.86 127.74,60.047 127.43,60.047 C127.119,60.047 126.643,60.212 126.395,60.419 C126.022,60.73 125.96,60.916 126.084,61.454 C126.25,62.22 127.264,63.151 127.927,63.151 C128.755,63.151 130.307,62.592 131.404,61.889 C132.397,61.247 132.584,61.206 135.15,61.04 C138.069,60.875 138.979,61.061 139.435,61.889 C139.766,62.51 141.318,63.234 143.512,63.772 C146.307,64.455 147.404,64.29 150.074,62.862 C151.874,61.909 152.454,61.702 153.944,61.495 C155.993,61.247 157.235,60.812 157.773,60.233 C158.001,59.985 158.456,59.281 158.787,58.639 C159.947,56.466 161.499,56.031 164.21,57.066 C165.349,57.501 165.825,57.563 166.715,57.48 C167.522,57.377 168.267,57.48 169.488,57.811 C171.103,58.246 171.186,58.246 173.028,57.915 C174.083,57.728 175.656,57.501 176.546,57.397 C177.83,57.232 178.368,57.066 179.03,56.569 C179.506,56.238 180.5,55.659 181.245,55.286 C182.197,54.81 183.232,53.982 184.764,52.492 C185.964,51.333 187.351,50.091 187.868,49.76 C188.386,49.408 189.566,48.476 190.497,47.69 C192.753,45.786 195.113,44.109 196.872,43.157 C197.679,42.722 199.211,41.791 200.287,41.087 C203.413,39.038 205.048,38.272 210.202,36.368 C212.851,35.374 215.562,34.298 216.204,33.988 C216.846,33.657 217.963,33.201 218.708,32.973 C219.909,32.601 221.772,31.835 226.118,29.931 C227.071,29.496 227.484,29.413 227.65,29.579 C227.795,29.724 228.023,32.994 228.25,38.769 C229.761,74.701 230.92,102.54 230.92,102.995 C230.92,103.285 230.713,103.72 230.486,103.947 C230.092,104.341 229.885,104.382 228.602,104.258 C226.926,104.113 226.139,104.403 225.622,105.417 C225.146,106.328 225.353,107.3 226.574,109.722 C227.878,112.309 227.981,112.972 227.402,114.69 C226.843,116.345 226.843,117.422 227.402,119.554 C227.919,121.541 227.857,121.913 226.677,124.107 C226.18,125.018 225.622,126.322 225.456,127.026 C225.27,127.729 224.897,128.806 224.587,129.447 C224.173,130.379 224.09,130.793 224.193,131.496 C224.297,132.2 224.214,132.614 223.8,133.525 C223.366,134.456 223.262,134.974 223.262,136.319 C223.262,137.23 223.366,138.306 223.469,138.741 C223.635,139.279 223.614,139.941 223.386,141.204 C223.076,143.046 222.641,143.667 221.73,143.667 C221.006,143.667 220.799,144.04 220.923,145.095 C221.006,145.902 220.944,146.192 220.509,146.834 C220.199,147.289 219.95,148.034 219.847,148.738 C219.743,149.669 219.557,150.063 218.895,150.829 C218.46,151.346 218.088,151.946 218.088,152.174 C218.088,152.402 218.46,152.981 218.915,153.478 C219.868,154.492 219.992,155.258 219.288,155.713 C218.895,155.982 218.812,156.293 218.688,157.617 C218.543,159.605 218.129,160.225 216.721,160.598 C215.852,160.846 215.335,161.26 212.954,163.599 C211.443,165.11 209.767,166.973 209.249,167.739 C208.691,168.567 207.759,169.581 206.931,170.243 C205.917,171.051 205.358,171.692 204.861,172.624 C204.178,173.907 204.158,173.928 202.523,174.197 C201.984,174.279 201.363,174.652 200.556,175.356 C199.087,176.639 198.093,176.97 196.913,176.556 C196.148,176.308 195.941,176.08 195.216,174.714 C194.492,173.348 194.305,173.162 193.747,173.1 C193.167,173.038 193.022,173.141 192.463,174.072 C192.049,174.714 191.47,175.294 190.87,175.646 C189.669,176.37 189.462,176.763 189.503,178.378 C189.524,179.537 189.462,179.764 188.986,180.22 C188.551,180.675 188.324,180.737 187.703,180.654 C185.033,180.241 184.826,180.241 184.37,180.696 C184.101,180.965 183.936,181.4 183.936,181.834 C183.936,182.89 183.604,183.594 182.57,184.691 L181.659,185.663 L181.659,188.023 C181.659,190.734 181.514,191.086 180.107,191.521 C178.865,191.914 178.885,192.514 180.169,193.839 C181.41,195.122 181.535,195.433 181.204,196.489 C181.017,197.109 181.017,197.523 181.224,198.289 C181.638,199.924 181.204,200.38 179.734,199.821 C178.596,199.407 178.264,199.531 177.747,200.545 C177.229,201.56 176.008,202.657 175.387,202.657 C174.746,202.657 174.001,202.098 174.001,201.622 C174.001,201.394 174.187,200.814 174.435,200.318 L174.87,199.428 L174.228,198.144 C173.876,197.441 173.462,196.84 173.318,196.82 C173.193,196.82 172.697,196.778 172.241,196.778 C171.517,196.758 171.372,196.675 170.999,195.95 C170.42,194.833 170.047,194.626 169.343,195.081 C169.033,195.288 168.64,195.743 168.453,196.095 C168.246,196.447 167.729,197.151 167.253,197.668 C166.798,198.186 166.052,199.283 165.618,200.069 C164.914,201.353 164.831,201.725 164.686,203.505 C164.542,205.803 164.272,206.382 163.031,207.003 C162.037,207.5 161.499,208.266 161.685,208.866 C161.768,209.094 162.182,209.715 162.637,210.232 C163.507,211.246 163.507,211.226 163.548,213.213 C163.569,213.958 163.672,215.179 163.755,215.945 C163.921,217.456 163.672,218.449 163.072,218.718 C162.865,218.801 161.892,218.925 160.878,219.008 C158.374,219.174 158.353,219.215 158.229,222.775 C158.084,226.811 157.732,227.308 154.689,227.805 C153.737,227.95 152.35,228.343 151.626,228.633 C150.032,229.316 146.534,229.585 145.644,229.109 z" fill="#57565B"/>
    <path d="M136.33,53.216 C135.813,52.699 135.813,52.347 136.289,51.912 C137.013,51.25 138.4,51.664 138.4,52.512 C138.4,52.947 137.634,53.63 137.158,53.63 C136.93,53.63 136.558,53.444 136.33,53.216 z" fill="#57565B"/>
    <path d="M131.59,51.146 C131.259,50.96 131.466,50.525 131.901,50.525 C132.211,50.525 132.315,51.043 132.025,51.229 C131.942,51.271 131.735,51.25 131.59,51.146 z" fill="#57565B"/>
    <path d="M138.131,220.767 C136.806,220.167 135.399,219.546 135.005,219.422 L134.322,219.194 L134.177,216.876 C134.095,215.593 133.991,214.103 133.929,213.523 C133.888,212.964 133.701,210.356 133.536,207.728 C133.37,205.12 133.184,202.408 133.122,201.725 C133.08,201.042 132.977,199.738 132.915,198.827 C132.853,197.917 132.749,196.613 132.708,195.93 C132.646,195.247 132.459,192.556 132.294,189.927 C132.128,187.319 131.942,184.649 131.88,184.028 C131.818,183.407 131.632,180.758 131.466,178.129 C131.3,175.521 131.114,172.769 131.052,172.023 C130.99,171.278 130.804,168.629 130.638,166.124 C130.472,163.62 130.286,161.053 130.224,160.432 C130.183,159.811 130.079,158.28 129.996,157.017 C129.914,155.775 129.831,154.596 129.789,154.43 C129.769,154.264 129.727,154.057 129.727,153.975 C129.707,153.871 128.134,153.809 126.188,153.809 L122.669,153.809 L122.669,151.636 L122.669,149.462 L118.633,149.462 L114.597,149.462 L114.597,145.633 L114.597,141.804 L137.572,141.804 L160.547,141.804 L160.547,145.633 L160.547,149.462 L156.511,149.462 L152.495,149.462 L152.433,151.594 L152.371,153.706 L148.811,153.768 L145.272,153.809 L145.147,155.113 C145.085,155.817 144.94,157.887 144.816,159.708 C144.692,161.529 144.568,163.579 144.506,164.262 C144.444,164.945 144.257,167.656 144.092,170.264 C143.926,172.893 143.74,175.687 143.678,176.473 C143.616,177.281 143.533,178.523 143.471,179.268 C143.409,180.013 143.326,181.275 143.264,182.062 C143.202,182.869 143.016,185.663 142.85,188.271 C142.684,190.9 142.498,193.591 142.436,194.274 C142.395,194.957 142.291,196.364 142.229,197.379 C142.167,198.413 142.022,200.463 141.919,201.932 C141.815,203.422 141.67,205.409 141.608,206.382 C141.546,207.355 141.442,208.7 141.401,209.383 C141.339,210.066 141.256,211.329 141.194,212.178 C140.842,217.394 140.677,219.857 140.635,220.809 C140.594,221.409 140.573,221.906 140.573,221.885 C140.573,221.885 139.476,221.388 138.131,220.767 z" fill="#FEFEFE"/>
    <path d="M127.25,133.608 C119.177,132.531 113.32,129.24 110.898,124.418 C107.483,117.629 107.214,110.26 110.174,104.009 C113.61,96.827 121.454,90.887 129.651,89.334 C132.611,88.776 133.894,89.045 134.515,90.328 C134.846,91.011 134.867,91.032 135.715,90.866 C137.93,90.431 140.434,90.845 141.614,91.839 C142.38,92.481 142.753,93.536 142.566,94.612 L142.421,95.44 L141.78,95.089 C141.387,94.882 140.621,94.757 139.855,94.757 C136.046,94.757 132.569,98.711 131.41,104.382 C130.996,106.348 130.996,107.238 131.348,107.238 C131.514,107.238 132.797,106.928 134.225,106.535 C148.279,102.685 159.166,93.578 165.831,80.124 C168.605,74.515 170.095,69.837 171.13,63.462 L171.275,62.634 L171.958,63.42 C173.551,65.263 174.421,70.396 173.841,74.535 C173.406,77.64 173.22,78.654 172.682,80.786 C171.875,84.036 170.881,86.664 169.163,90.162 C166.555,95.502 163.927,99.228 159.849,103.326 C154.199,108.998 147.906,112.868 140.103,115.414 C137.619,116.221 137.226,116.677 139.172,116.449 C142.69,116.056 145.919,115.062 149.811,113.158 C157.365,109.432 164.03,103.844 168.149,97.738 C169.846,95.233 170.633,93.743 171.316,91.715 C171.585,90.907 171.854,90.204 171.916,90.142 C171.978,90.08 172.185,90.535 172.392,91.135 C172.951,92.708 172.889,96.599 172.289,98.814 C169.908,107.673 162.809,115.6 152.812,120.589 C147.865,123.072 142.09,124.977 136.605,125.991 C134.121,126.425 133.977,126.467 133.977,126.736 C133.977,127.067 139.813,126.819 142.049,126.384 C149.397,124.977 157.428,120.94 163.368,115.683 C163.989,115.124 164.527,114.772 164.568,114.876 C164.672,115.186 164.051,117.463 163.492,118.871 C162.706,120.816 161.733,122.265 159.932,124.19 C155.316,129.095 147.886,132.407 138.737,133.608 C136.005,133.98 129.961,133.98 127.25,133.608 z M116.3,108.128 C116.839,107.073 117.915,105.996 118.474,105.996 C118.577,105.996 118.929,106.431 119.281,106.99 C120.047,108.128 120.688,108.646 121.537,108.811 C122.117,108.936 122.179,108.873 122.613,107.88 C123.089,106.762 124.228,105.582 124.828,105.582 C125.014,105.582 125.387,105.955 125.656,106.41 C126.173,107.321 127.188,108.17 128.016,108.377 L128.595,108.522 L128.574,107.218 C128.554,105.852 128.988,103.347 129.568,101.546 C130.085,99.911 131.617,97.055 132.631,95.875 C133.666,94.675 133.956,93.929 133.563,93.474 C133.19,93.019 132.776,93.101 131.907,93.785 C130.768,94.695 129.071,95.482 128.429,95.399 C127.974,95.358 127.85,95.213 127.809,94.716 C127.726,93.888 128.388,93.267 129.858,92.791 C130.561,92.584 130.975,92.315 130.975,92.129 C130.975,91.342 126.463,92.46 123.421,93.992 C120.316,95.565 117.128,98.255 115.224,100.967 C114.086,102.519 112.451,105.789 112.451,106.452 C112.451,107.114 113.361,108.418 114.168,108.915 C115.286,109.577 115.638,109.453 116.3,108.128 z" fill="#E6C601"/>
  </g>
</svg>
